<svg width="24" height="24" viewBox="0 0 24 24" fill="none" xmlns="http://www.w3.org/2000/svg">
<path fill-rule="evenodd" clip-rule="evenodd" d="M14.999 5.99951C16.2417 5.99951 17.249 4.99215 17.249 3.74951C17.249 2.50687 16.2417 1.49951 14.999 1.49951C13.7564 1.49951 12.749 2.50687 12.749 3.74951C12.749 4.99215 13.7564 5.99951 14.999 5.99951Z" stroke="#5928E5" stroke-width="1.5" stroke-linecap="round" stroke-linejoin="round"/>
<path fill-rule="evenodd" clip-rule="evenodd" d="M4.49902 22.4995C6.57009 22.4995 8.24902 20.8206 8.24902 18.7495C8.24902 16.6784 6.57009 14.9995 4.49902 14.9995C2.42796 14.9995 0.749023 16.6784 0.749023 18.7495C0.749023 20.8206 2.42796 22.4995 4.49902 22.4995Z" stroke="#5928E5" stroke-width="1.5" stroke-linecap="round" stroke-linejoin="round"/>
<path fill-rule="evenodd" clip-rule="evenodd" d="M19.499 22.4995C21.5701 22.4995 23.249 20.8206 23.249 18.7495C23.249 16.6784 21.5701 14.9995 19.499 14.9995C17.428 14.9995 15.749 16.6784 15.749 18.7495C15.749 20.8206 17.428 22.4995 19.499 22.4995Z" stroke="#5928E5" stroke-width="1.5" stroke-linecap="round" stroke-linejoin="round"/>
<path fill-rule="evenodd" clip-rule="evenodd" d="M12.0002 20.2494C11.1718 20.2494 10.5002 19.5778 10.5002 18.7494C10.5046 16.5075 9.25566 14.4511 7.26423 13.4214C6.83496 13.1973 6.54032 12.7797 6.47305 12.3001C6.40579 11.8205 6.57419 11.338 6.92523 11.0044L10.9672 7.1624C11.3118 6.83483 11.7912 6.69 12.2595 6.77202C12.7278 6.85405 13.1295 7.15322 13.3422 7.5784C13.3492 7.5914 14.4882 9.7494 16.5002 9.7494C17.3287 9.7494 18.0002 10.421 18.0002 11.2494C18.0002 12.0778 17.3287 12.7494 16.5002 12.7494C14.6828 12.7173 12.9672 11.9044 11.7912 10.5184L10.3382 11.8994C12.3479 13.6069 13.5044 16.1123 13.5002 18.7494C13.5002 19.5778 12.8287 20.2494 12.0002 20.2494Z" stroke="#5928E5" stroke-width="1.5" stroke-linecap="round" stroke-linejoin="round"/>
</svg>
