<svg width="25" height="24" viewBox="0 0 25 24" fill="none" xmlns="http://www.w3.org/2000/svg">
<path fill-rule="evenodd" clip-rule="evenodd" d="M21.7759 12.79L12.8899 15.777L11.6999 14.594L9.93392 15.187C9.69486 15.2673 9.51218 15.4625 9.44775 15.7063C9.38332 15.9501 9.44575 16.21 9.61392 16.398L11.9999 19.071C12.4002 19.5201 13.03 19.6866 13.5999 19.494L16.2169 18.614L15.6869 22.395C15.6508 22.6525 15.7506 22.9103 15.9507 23.0763C16.1507 23.2423 16.4225 23.2929 16.6689 23.21L18.0289 22.753C18.2401 22.6821 18.4088 22.5208 18.4889 22.313L20.4829 17.181L22.9709 16.344C23.9523 16.0126 24.4793 14.9484 24.1479 13.967C23.8165 12.9856 22.7523 12.4586 21.7709 12.79H21.7759Z" stroke="#5928E5" stroke-width="1.5" stroke-linecap="round" stroke-linejoin="round"/>
<path d="M19.2881 13.6258L16.5081 11.7118C16.3138 11.5779 16.0677 11.5435 15.8441 11.6188L14.5061 12.0678C14.2599 12.151 14.0743 12.3555 14.0153 12.6086C13.9562 12.8616 14.0322 13.1272 14.2161 13.3108L15.7331 14.8208" stroke="#5928E5" stroke-width="1.5" stroke-linecap="round" stroke-linejoin="round"/>
<path d="M6.99993 17.9318C2.93226 16.068 0.851459 11.499 2.11561 7.20696C3.37977 2.91492 7.60495 0.203301 12.0335 0.841915C16.462 1.48053 19.7489 5.27543 19.7489 9.74976" stroke="#5928E5" stroke-width="1.5" stroke-linecap="round" stroke-linejoin="round"/>
<path d="M5.02393 2.80469L10.3049 4.80469C10.994 5.06305 11.3939 5.78317 11.2489 6.50469L10.9349 8.06869C10.8212 8.63707 10.3903 9.08908 9.82793 9.22969L7.74893 9.74969L6.59993 12.6347C6.37463 13.1981 5.98376 13.68 5.47893 14.0167L3.64893 15.2737" stroke="#5928E5" stroke-width="1.5" stroke-linecap="round" stroke-linejoin="round"/>
<path d="M16.9938 3.26953L15.5268 6.19353C15.349 6.54936 15.3199 6.96122 15.4458 7.33853L15.9998 8.99953" stroke="#5928E5" stroke-width="1.5" stroke-linecap="round" stroke-linejoin="round"/>
</svg>
